<svg width="24" height="24" viewBox="0 0 24 24" fill="none" xmlns="http://www.w3.org/2000/svg">
<path d="M16.75 1.25C20.0637 1.25 22.75 3.93629 22.75 7.25L22.75 16.75C22.75 20.0637 20.0637 22.75 16.75 22.75L7.25 22.75C3.93629 22.75 1.25 20.0637 1.25 16.75L1.25 7.25C1.25 3.93629 3.93629 1.25 7.25 1.25L16.75 1.25Z" fill="#BFBFBF"/>
<path fill-rule="evenodd" clip-rule="evenodd" d="M12.7 10.2736C12.3197 9.87211 11.6803 9.87211 11.3 10.2736L6.54447 15.2933C6.25959 15.594 5.78489 15.6068 5.48419 15.3219C5.18349 15.0371 5.17066 14.5624 5.45554 14.2617L10.211 9.24196C11.183 8.21598 12.817 8.21598 13.789 9.24196L18.5445 14.2617C18.8293 14.5624 18.8165 15.0371 18.5158 15.3219C18.2151 15.6068 17.7404 15.594 17.4555 15.2933L12.7 10.2736Z" fill="black"/>
</svg>
